<?xml version="1.0" encoding="UTF-8" standalone="no"?>
<!DOCTYPE svg PUBLIC "-//W3C//DTD SVG 1.1//EN"
 "http://www.w3.org/Graphics/SVG/1.1/DTD/svg11.dtd">
<!-- Generated by graphviz version 2.28.0 (20120524.1256)
 -->
<!-- Title: models_diagram Pages: 1 -->
<svg width="3815pt" height="512pt"
 viewBox="0.00 0.00 3815.00 512.00" xmlns="http://www.w3.org/2000/svg" xmlns:xlink="http://www.w3.org/1999/xlink">
<g id="graph1" class="graph" transform="scale(1 1) rotate(0) translate(4 508)">
<title>models_diagram</title>
<polygon fill="white" stroke="white" points="-4,5 -4,-508 3812,-508 3812,5 -4,5"/>
<!-- _diagram_info -->
<g id="node1" class="node"><title>_diagram_info</title>
<text text-anchor="start" x="174.5" y="-489.6" font-family="Times,serif" font-size="13.00">Models diagram</text>
<text text-anchor="start" x="174.5" y="-475.6" font-family="Times,serif" font-size="13.00">Date: Oct 03 2012 &#45; 14:33</text>
<text text-anchor="start" x="174.5" y="-461.6" font-family="Times,serif" font-size="13.00">Migration version: 20120807115637</text>
<text text-anchor="start" x="174.5" y="-447.6" font-family="Times,serif" font-size="13.00">Generated by RailRoady 1.1.0</text>
<text text-anchor="start" x="174.5" y="-433.6" font-family="Times,serif" font-size="13.00">http://railroady.prestonlee.com</text>
</g>
<!-- User::Moderator -->
<g id="node2" class="node"><title>User::Moderator</title>
<ellipse fill="none" stroke="black" cx="167" cy="-180" rx="70.2909" ry="18"/>
<text text-anchor="middle" x="167" y="-176.3" font-family="Times,serif" font-size="14.00">User::Moderator</text>
</g>
<!-- Hotel::City -->
<g id="node15" class="node"><title>Hotel::City</title>
<ellipse fill="none" stroke="black" cx="56" cy="-92" rx="49.0941" ry="18"/>
<text text-anchor="middle" x="56" y="-88.3" font-family="Times,serif" font-size="14.00">Hotel::City</text>
</g>
<!-- User::Moderator&#45;&gt;Hotel::City -->
<g id="edge2" class="edge"><title>User::Moderator&#45;&gt;Hotel::City</title>
<path fill="none" stroke="#f26c4c" d="M147.609,-154.144C139.921,-145.242 130.623,-135.553 121,-128 112.985,-121.709 103.679,-115.95 94.6573,-110.999"/>
<polygon fill="#f26c4c" stroke="#f26c4c" points="147.77,-154.337 150.726,-164.897 150.975,-158.175 154.18,-162.013 154.18,-162.013 154.18,-162.013 150.975,-158.175 157.634,-159.128 147.77,-154.337 147.77,-154.337"/>
<polygon fill="#f26c4c" stroke="#f26c4c" points="94.6366,-110.989 87.886,-102.347 90.2127,-108.658 85.7888,-106.328 85.7888,-106.328 85.7888,-106.328 90.2127,-108.658 83.6917,-110.31 94.6366,-110.989 94.6366,-110.989"/>
<text text-anchor="middle" x="152.5" y="-132.3" font-family="Times,serif" font-size="14.00">cities</text>
</g>
<!-- User::Message -->
<g id="node40" class="node"><title>User::Message</title>
<ellipse fill="none" stroke="black" cx="187" cy="-92" rx="63.5411" ry="18"/>
<text text-anchor="middle" x="187" y="-88.3" font-family="Times,serif" font-size="14.00">User::Message</text>
</g>
<!-- User::Moderator&#45;&gt;User::Message -->
<g id="edge4" class="edge"><title>User::Moderator&#45;&gt;User::Message</title>
<path fill="none" stroke="#93186e" d="M172.779,-154.151C175.258,-143.489 178.162,-131.003 180.697,-120.103"/>
<ellipse fill="none" stroke="#93186e" cx="171.857" cy="-158.113" rx="4.00001" ry="4.00001"/>
<polygon fill="#93186e" stroke="#93186e" points="180.723,-119.99 187.371,-111.269 181.856,-115.12 182.988,-110.25 182.988,-110.25 182.988,-110.25 181.856,-115.12 178.605,-109.231 180.723,-119.99 180.723,-119.99"/>
</g>
<!-- User::Ticket -->
<g id="node42" class="node"><title>User::Ticket</title>
<ellipse fill="none" stroke="black" cx="323" cy="-92" rx="53.4184" ry="18"/>
<text text-anchor="middle" x="323" y="-88.3" font-family="Times,serif" font-size="14.00">User::Ticket</text>
</g>
<!-- User::Moderator&#45;&gt;User::Ticket -->
<g id="edge6" class="edge"><title>User::Moderator&#45;&gt;User::Ticket</title>
<path fill="none" stroke="#5f6162" d="M202.61,-159.369C227.981,-145.382 261.946,-126.658 287.33,-112.664"/>
<ellipse fill="none" stroke="#5f6162" cx="198.753" cy="-161.495" rx="4.00002" ry="4.00002"/>
<polygon fill="#5f6162" stroke="#5f6162" points="287.505,-112.568 298.435,-111.681 291.884,-110.154 296.262,-107.74 296.262,-107.74 296.262,-107.74 291.884,-110.154 294.09,-103.799 287.505,-112.568 287.505,-112.568"/>
</g>
<!-- User::Agency -->
<g id="node3" class="node"><title>User::Agency</title>
<ellipse fill="none" stroke="black" cx="315" cy="-180" rx="59.1941" ry="18"/>
<text text-anchor="middle" x="315" y="-176.3" font-family="Times,serif" font-size="14.00">User::Agency</text>
</g>
<!-- User::Agency&#45;&gt;User::Ticket -->
<g id="edge10" class="edge"><title>User::Agency&#45;&gt;User::Ticket</title>
<path fill="none" stroke="#60d599" d="M317.387,-153.339C318.362,-142.855 319.491,-130.718 320.48,-120.091"/>
<ellipse fill="none" stroke="#60d599" cx="316.989" cy="-157.614" rx="4" ry="4"/>
<polygon fill="#60d599" stroke="#60d599" points="320.484,-120.041 325.891,-110.501 320.948,-115.063 321.411,-110.084 321.411,-110.084 321.411,-110.084 320.948,-115.063 316.93,-109.667 320.484,-120.041 320.484,-120.041"/>
</g>
<!-- Hotels -->
<g id="node4" class="node"><title>Hotels</title>
<polygon fill="none" stroke="black" stroke-dasharray="1,5" points="712,-483 658,-483 658,-447 712,-447 712,-483"/>
<text text-anchor="middle" x="685" y="-461.3" font-family="Times,serif" font-size="14.00">Hotels</text>
</g>
<!-- Ability -->
<g id="node5" class="node"><title>Ability</title>
<polygon fill="none" stroke="black" points="830,-483 776,-483 776,-447 830,-447 830,-483"/>
<text text-anchor="middle" x="803" y="-461.3" font-family="Times,serif" font-size="14.00">Ability</text>
</g>
<!-- EmailTemplate -->
<g id="node6" class="node"><title>EmailTemplate</title>
<ellipse fill="none" stroke="black" cx="1002" cy="-465" rx="63.5411" ry="18"/>
<text text-anchor="middle" x="1002" y="-461.3" font-family="Times,serif" font-size="14.00">EmailTemplate</text>
</g>
<!-- Profile -->
<g id="node7" class="node"><title>Profile</title>
<ellipse fill="none" stroke="black" cx="427" cy="-180" rx="34.1708" ry="18"/>
<text text-anchor="middle" x="427" y="-176.3" font-family="Times,serif" font-size="14.00">Profile</text>
</g>
<!-- Note -->
<g id="node47" class="node"><title>Note</title>
<ellipse fill="none" stroke="black" cx="425" cy="-92" rx="28.3955" ry="18"/>
<text text-anchor="middle" x="425" y="-88.3" font-family="Times,serif" font-size="14.00">Note</text>
</g>
<!-- Profile&#45;&gt;Note -->
<g id="edge14" class="edge"><title>Profile&#45;&gt;Note</title>
<path fill="none" stroke="#ef5fba" d="M426.403,-153.339C426.159,-142.855 425.877,-130.718 425.63,-120.091"/>
<ellipse fill="none" stroke="#ef5fba" cx="426.502" cy="-157.598" rx="4" ry="4"/>
<polygon fill="#ef5fba" stroke="#ef5fba" points="425.63,-120.081 429.896,-109.979 425.514,-115.083 425.397,-110.084 425.397,-110.084 425.397,-110.084 425.514,-115.083 420.899,-110.189 425.63,-120.081 425.63,-120.081"/>
</g>
<!-- Hotel -->
<g id="node8" class="node"><title>Hotel</title>
<ellipse fill="none" stroke="black" cx="1159" cy="-465" rx="30.3206" ry="18"/>
<text text-anchor="middle" x="1159" y="-461.3" font-family="Times,serif" font-size="14.00">Hotel</text>
</g>
<!-- Hotel::Service::Value -->
<g id="node26" class="node"><title>Hotel::Service::Value</title>
<ellipse fill="none" stroke="black" cx="759" cy="-356" rx="84.2388" ry="18"/>
<text text-anchor="middle" x="759" y="-352.3" font-family="Times,serif" font-size="14.00">Hotel::Service::Value</text>
</g>
<!-- Hotel&#45;&gt;Hotel::Service::Value -->
<g id="edge18" class="edge"><title>Hotel&#45;&gt;Hotel::Service::Value</title>
<path fill="none" stroke="#5b8a2c" d="M1129.84,-448.267C1113.8,-440.317 1093.3,-431.263 1074,-426 1004.96,-407.174 983.913,-423.264 914,-408 877.413,-400.012 837.281,-386.675 807.021,-375.643"/>
<ellipse fill="none" stroke="#5b8a2c" cx="1133.75" cy="-450.253" rx="4.00002" ry="4.00002"/>
<polygon fill="#5b8a2c" stroke="#5b8a2c" points="806.942,-375.613 799.118,-367.93 802.251,-373.882 797.56,-372.151 797.56,-372.151 797.56,-372.151 802.251,-373.882 796.002,-376.373 806.942,-375.613 806.942,-375.613"/>
<text text-anchor="middle" x="955" y="-396.3" font-family="Times,serif" font-size="14.00">service_values</text>
</g>
<!-- Hotel::Filter::Value -->
<g id="node30" class="node"><title>Hotel::Filter::Value</title>
<ellipse fill="none" stroke="black" cx="938" cy="-356" rx="76.0649" ry="18"/>
<text text-anchor="middle" x="938" y="-352.3" font-family="Times,serif" font-size="14.00">Hotel::Filter::Value</text>
</g>
<!-- Hotel&#45;&gt;Hotel::Filter::Value -->
<g id="edge16" class="edge"><title>Hotel&#45;&gt;Hotel::Filter::Value</title>
<path fill="none" stroke="#206fd9" d="M1128.06,-449.955C1111.98,-442.708 1091.98,-433.779 1074,-426 1054.99,-417.772 1049.66,-416.993 1031,-408 1011.96,-398.828 991.308,-387.631 974.309,-378.068"/>
<ellipse fill="none" stroke="#206fd9" cx="1131.97" cy="-451.719" rx="4.00002" ry="4.00002"/>
<polygon fill="#206fd9" stroke="#206fd9" points="973.974,-377.878 967.494,-369.032 969.624,-375.412 965.275,-372.947 965.275,-372.947 965.275,-372.947 969.624,-375.412 963.055,-376.861 973.974,-377.878 973.974,-377.878"/>
<text text-anchor="middle" x="1064.5" y="-396.3" font-family="Times,serif" font-size="14.00">filter_values</text>
</g>
<!-- Review -->
<g id="node51" class="node"><title>Review</title>
<ellipse fill="none" stroke="black" cx="1070" cy="-356" rx="37.5442" ry="18"/>
<text text-anchor="middle" x="1070" y="-352.3" font-family="Times,serif" font-size="14.00">Review</text>
</g>
<!-- Hotel&#45;&gt;Review -->
<g id="edge20" class="edge"><title>Hotel&#45;&gt;Review</title>
<path fill="none" stroke="#490add" d="M1141.01,-442.376C1126.2,-424.568 1105.22,-399.343 1089.9,-380.93"/>
<ellipse fill="none" stroke="#490add" cx="1143.69" cy="-445.594" rx="4.00002" ry="4.00002"/>
<polygon fill="#490add" stroke="#490add" points="1089.7,-380.689 1086.77,-370.123 1086.51,-376.845 1083.31,-373.001 1083.31,-373.001 1083.31,-373.001 1086.51,-376.845 1079.85,-375.879 1089.7,-380.689 1089.7,-380.689"/>
</g>
<!-- Room -->
<g id="node53" class="node"><title>Room</title>
<ellipse fill="none" stroke="black" cx="1159" cy="-356" rx="33.1991" ry="18"/>
<text text-anchor="middle" x="1159" y="-352.3" font-family="Times,serif" font-size="14.00">Room</text>
</g>
<!-- Hotel&#45;&gt;Room -->
<g id="edge22" class="edge"><title>Hotel&#45;&gt;Room</title>
<path fill="none" stroke="#b7688f" d="M1159,-438.772C1159,-422.434 1159,-401.161 1159,-384.408"/>
<ellipse fill="none" stroke="#b7688f" cx="1159" cy="-442.809" rx="4" ry="4"/>
<polygon fill="#b7688f" stroke="#b7688f" points="1159,-384.149 1163.5,-374.149 1159,-379.149 1159,-374.149 1159,-374.149 1159,-374.149 1159,-379.149 1154.5,-374.149 1159,-384.149 1159,-384.149"/>
</g>
<!-- Image -->
<g id="node55" class="node"><title>Image</title>
<ellipse fill="none" stroke="black" cx="1243" cy="-356" rx="32.2457" ry="18"/>
<text text-anchor="middle" x="1243" y="-352.3" font-family="Times,serif" font-size="14.00">Image</text>
</g>
<!-- Hotel&#45;&gt;Image -->
<g id="edge24" class="edge"><title>Hotel&#45;&gt;Image</title>
<path fill="none" stroke="#7a1877" d="M1176.35,-441.893C1190.24,-424.205 1209.69,-399.433 1223.99,-381.212"/>
<ellipse fill="none" stroke="#7a1877" cx="1173.86" cy="-445.065" rx="4.00002" ry="4.00002"/>
<polygon fill="#7a1877" stroke="#7a1877" points="1224.38,-380.719 1234.09,-375.632 1227.47,-376.786 1230.55,-372.853 1230.55,-372.853 1230.55,-372.853 1227.47,-376.786 1227.02,-370.074 1224.38,-380.719 1224.38,-380.719"/>
</g>
<!-- SpecialOffer -->
<g id="node57" class="node"><title>SpecialOffer</title>
<ellipse fill="none" stroke="black" cx="1350" cy="-356" rx="56.3173" ry="18"/>
<text text-anchor="middle" x="1350" y="-352.3" font-family="Times,serif" font-size="14.00">SpecialOffer</text>
</g>
<!-- Hotel&#45;&gt;SpecialOffer -->
<g id="edge26" class="edge"><title>Hotel&#45;&gt;SpecialOffer</title>
<path fill="none" stroke="#39d36f" d="M1183.04,-444.678C1191.35,-438.382 1200.88,-431.583 1210,-426 1241.88,-406.495 1280.04,-387.98 1308.46,-375.05"/>
<ellipse fill="none" stroke="#39d36f" cx="1179.55" cy="-447.369" rx="4.00002" ry="4.00002"/>
<polygon fill="#39d36f" stroke="#39d36f" points="1308.59,-374.993 1319.55,-374.988 1313.15,-372.939 1317.7,-370.886 1317.7,-370.886 1317.7,-370.886 1313.15,-372.939 1315.86,-366.783 1308.59,-374.993 1308.59,-374.993"/>
</g>
<!-- BankAttribute -->
<g id="node59" class="node"><title>BankAttribute</title>
<ellipse fill="none" stroke="black" cx="1486" cy="-356" rx="61.1419" ry="18"/>
<text text-anchor="middle" x="1486" y="-352.3" font-family="Times,serif" font-size="14.00">BankAttribute</text>
</g>
<!-- Hotel&#45;&gt;BankAttribute -->
<g id="edge28" class="edge"><title>Hotel&#45;&gt;BankAttribute</title>
<path fill="none" stroke="#be8e2b" d="M1181.37,-444.331C1189.86,-437.7 1199.92,-430.777 1210,-426 1220.04,-421.242 1352.3,-389.089 1430.02,-370.399"/>
<ellipse fill="none" stroke="#be8e2b" cx="1178.03" cy="-447.026" rx="4.00002" ry="4.00002"/>
<polygon fill="#be8e2b" stroke="#be8e2b" points="1430.42,-370.303 1441.2,-372.342 1435.28,-369.135 1440.14,-367.966 1440.14,-367.966 1440.14,-367.966 1435.28,-369.135 1439.09,-363.591 1430.42,-370.303 1430.42,-370.303"/>
</g>
<!-- BasketItem -->
<g id="node9" class="node"><title>BasketItem</title>
<ellipse fill="none" stroke="black" cx="531" cy="-180" rx="51.0191" ry="18"/>
<text text-anchor="middle" x="531" y="-176.3" font-family="Times,serif" font-size="14.00">BasketItem</text>
</g>
<!-- ContactMessage -->
<g id="node10" class="node"><title>ContactMessage</title>
<ellipse fill="none" stroke="black" cx="1290" cy="-465" rx="71.2405" ry="18"/>
<text text-anchor="middle" x="1290" y="-461.3" font-family="Times,serif" font-size="14.00">ContactMessage</text>
</g>
<!-- Hotel::Booking -->
<g id="node11" class="node"><title>Hotel::Booking</title>
<ellipse fill="none" stroke="black" cx="1465" cy="-465" rx="64.4914" ry="18"/>
<text text-anchor="middle" x="1465" y="-461.3" font-family="Times,serif" font-size="14.00">Hotel::Booking</text>
</g>
<!-- Hotel::Room -->
<g id="node12" class="node"><title>Hotel::Room</title>
<ellipse fill="none" stroke="black" cx="658" cy="-180" rx="57.2927" ry="18"/>
<text text-anchor="middle" x="658" y="-176.3" font-family="Times,serif" font-size="14.00">Hotel::Room</text>
</g>
<!-- Hotel::Room::Photo -->
<g id="node18" class="node"><title>Hotel::Room::Photo</title>
<ellipse fill="none" stroke="black" cx="555" cy="-92" rx="83.2892" ry="18"/>
<text text-anchor="middle" x="555" y="-88.3" font-family="Times,serif" font-size="14.00">Hotel::Room::Photo</text>
</g>
<!-- Hotel::Room&#45;&gt;Hotel::Room::Photo -->
<g id="edge30" class="edge"><title>Hotel::Room&#45;&gt;Hotel::Room::Photo</title>
<path fill="none" stroke="#49032e" d="M632.364,-157.596C617.259,-144.983 598.144,-129.023 582.694,-116.123"/>
<ellipse fill="none" stroke="#49032e" cx="635.556" cy="-160.26" rx="4.00002" ry="4.00002"/>
<polygon fill="#49032e" stroke="#49032e" points="582.665,-116.099 577.873,-106.236 578.827,-112.895 574.989,-109.69 574.989,-109.69 574.989,-109.69 578.827,-112.895 572.105,-113.144 582.665,-116.099 582.665,-116.099"/>
<text text-anchor="middle" x="636" y="-132.3" font-family="Times,serif" font-size="14.00">photos</text>
</g>
<!-- Hotel::Room::List::Value -->
<g id="node22" class="node"><title>Hotel::Room::List::Value</title>
<ellipse fill="none" stroke="black" cx="754" cy="-92" rx="98.212" ry="18"/>
<text text-anchor="middle" x="754" y="-88.3" font-family="Times,serif" font-size="14.00">Hotel::Room::List::Value</text>
</g>
<!-- Hotel::Room&#45;&gt;Hotel::Room::List::Value -->
<g id="edge34" class="edge"><title>Hotel::Room&#45;&gt;Hotel::Room::List::Value</title>
<path fill="none" stroke="#a96073" d="M682.33,-157.205C696.232,-144.751 713.668,-129.131 727.861,-116.416"/>
<ellipse fill="none" stroke="#a96073" cx="679.036" cy="-160.155" rx="4.00002" ry="4.00002"/>
<polygon fill="#a96073" stroke="#a96073" points="727.921,-116.363 738.372,-113.042 731.645,-113.026 735.369,-109.69 735.369,-109.69 735.369,-109.69 731.645,-113.026 732.367,-106.338 727.921,-116.363 727.921,-116.363"/>
<text text-anchor="middle" x="744" y="-132.3" font-family="Times,serif" font-size="14.00">list_values</text>
</g>
<!-- Hotel::Room::Field::Value -->
<g id="node24" class="node"><title>Hotel::Room::Field::Value</title>
<ellipse fill="none" stroke="black" cx="973" cy="-92" rx="102.536" ry="18"/>
<text text-anchor="middle" x="973" y="-88.3" font-family="Times,serif" font-size="14.00">Hotel::Room::Field::Value</text>
</g>
<!-- Hotel::Room&#45;&gt;Hotel::Room::Field::Value -->
<g id="edge32" class="edge"><title>Hotel::Room&#45;&gt;Hotel::Room::Field::Value</title>
<path fill="none" stroke="#d81cee" d="M707.738,-165.421C762.54,-150.459 850.782,-126.368 910.285,-110.122"/>
<ellipse fill="none" stroke="#d81cee" cx="703.688" cy="-166.526" rx="4.00001" ry="4.00001"/>
<polygon fill="#d81cee" stroke="#d81cee" points="910.297,-110.119 921.13,-111.826 915.121,-108.802 919.944,-107.485 919.944,-107.485 919.944,-107.485 915.121,-108.802 918.759,-103.144 910.297,-110.119 910.297,-110.119"/>
<text text-anchor="middle" x="877.5" y="-132.3" font-family="Times,serif" font-size="14.00">field_values</text>
</g>
<!-- Hotel::Service -->
<g id="node13" class="node"><title>Hotel::Service</title>
<ellipse fill="none" stroke="black" cx="1619" cy="-465" rx="61.1419" ry="18"/>
<text text-anchor="middle" x="1619" y="-461.3" font-family="Times,serif" font-size="14.00">Hotel::Service</text>
</g>
<!-- Hotel::Value -->
<g id="node64" class="node"><title>Hotel::Value</title>
<ellipse fill="none" stroke="black" cx="1619" cy="-356" rx="53.4184" ry="18"/>
<text text-anchor="middle" x="1619" y="-352.3" font-family="Times,serif" font-size="14.00">Hotel::Value</text>
</g>
<!-- Hotel::Service&#45;&gt;Hotel::Value -->
<g id="edge36" class="edge"><title>Hotel::Service&#45;&gt;Hotel::Value</title>
<path fill="none" stroke="#b464c6" d="M1619,-438.772C1619,-422.434 1619,-401.161 1619,-384.408"/>
<ellipse fill="none" stroke="#b464c6" cx="1619" cy="-442.809" rx="4" ry="4"/>
<polygon fill="#b464c6" stroke="#b464c6" points="1619,-384.149 1623.5,-374.149 1619,-379.149 1619,-374.149 1619,-374.149 1619,-374.149 1619,-379.149 1614.5,-374.149 1619,-384.149 1619,-384.149"/>
</g>
<!-- Hotel::Review -->
<g id="node14" class="node"><title>Hotel::Review</title>
<ellipse fill="none" stroke="black" cx="1759" cy="-465" rx="61.1419" ry="18"/>
<text text-anchor="middle" x="1759" y="-461.3" font-family="Times,serif" font-size="14.00">Hotel::Review</text>
</g>
<!-- Hotel::City&#45;&gt;User::Moderator -->
<g id="edge40" class="edge"><title>Hotel::City&#45;&gt;User::Moderator</title>
<path fill="none" stroke="#9d6b6d" d="M47.9692,-120.308C47.1287,-128.598 48.0332,-137.279 53,-144 62.4379,-156.77 76.4536,-165.03 91.4568,-170.336"/>
<polygon fill="#9d6b6d" stroke="#9d6b6d" points="48.018,-120.037 54.2211,-110.995 48.9052,-115.117 49.7925,-110.196 49.7925,-110.196 49.7925,-110.196 48.9052,-115.117 45.3639,-109.398 48.018,-120.037 48.018,-120.037"/>
<polygon fill="#9d6b6d" stroke="#9d6b6d" points="91.866,-170.462 100.092,-177.714 96.6432,-171.938 101.42,-173.414 101.42,-173.414 101.42,-173.414 96.6432,-171.938 102.749,-169.114 91.866,-170.462 91.866,-170.462"/>
<text text-anchor="middle" x="85" y="-132.3" font-family="Times,serif" font-size="14.00">moderators</text>
</g>
<!-- Hotel::Ticket -->
<g id="node66" class="node"><title>Hotel::Ticket</title>
<ellipse fill="none" stroke="black" cx="56" cy="-18" rx="56.3173" ry="18"/>
<text text-anchor="middle" x="56" y="-14.3" font-family="Times,serif" font-size="14.00">Hotel::Ticket</text>
</g>
<!-- Hotel::City&#45;&gt;Hotel::Ticket -->
<g id="edge38" class="edge"><title>Hotel::City&#45;&gt;Hotel::Ticket</title>
<path fill="none" stroke="#a4ee77" d="M56,-63.7193C56,-58.1452 56,-52.2742 56,-46.686"/>
<polygon fill="#a4ee77" stroke="#a4ee77" points="56.0001,-63.937 51.5,-73.937 56,-68.937 56,-73.937 56,-73.937 56,-73.937 56,-68.937 60.5,-73.937 56.0001,-63.937 56.0001,-63.937"/>
<polygon fill="#a4ee77" stroke="#a4ee77" points="56.0001,-46.4407 60.5,-36.4406 56,-41.4407 56,-36.4407 56,-36.4407 56,-36.4407 56,-41.4407 51.5,-36.4407 56.0001,-46.4407 56.0001,-46.4407"/>
</g>
<!-- Hotel::Image -->
<g id="node16" class="node"><title>Hotel::Image</title>
<ellipse fill="none" stroke="black" cx="1894" cy="-465" rx="55.3436" ry="18"/>
<text text-anchor="middle" x="1894" y="-461.3" font-family="Times,serif" font-size="14.00">Hotel::Image</text>
</g>
<!-- Hotel::BankAttribute -->
<g id="node17" class="node"><title>Hotel::BankAttribute</title>
<ellipse fill="none" stroke="black" cx="2052" cy="-465" rx="84.2388" ry="18"/>
<text text-anchor="middle" x="2052" y="-461.3" font-family="Times,serif" font-size="14.00">Hotel::BankAttribute</text>
</g>
<!-- Hotel::Room::Type -->
<g id="node19" class="node"><title>Hotel::Room::Type</title>
<ellipse fill="none" stroke="black" cx="2234" cy="-465" rx="78.9404" ry="18"/>
<text text-anchor="middle" x="2234" y="-461.3" font-family="Times,serif" font-size="14.00">Hotel::Room::Type</text>
</g>
<!-- Hotel::Room::List -->
<g id="node20" class="node"><title>Hotel::Room::List</title>
<ellipse fill="none" stroke="black" cx="2406" cy="-465" rx="74.6146" ry="18"/>
<text text-anchor="middle" x="2406" y="-461.3" font-family="Times,serif" font-size="14.00">Hotel::Room::List</text>
</g>
<!-- Hotel::Room::Item -->
<g id="node69" class="node"><title>Hotel::Room::Item</title>
<ellipse fill="none" stroke="black" cx="2406" cy="-356" rx="77.0154" ry="18"/>
<text text-anchor="middle" x="2406" y="-352.3" font-family="Times,serif" font-size="14.00">Hotel::Room::Item</text>
</g>
<!-- Hotel::Room::List&#45;&gt;Hotel::Room::Item -->
<g id="edge42" class="edge"><title>Hotel::Room::List&#45;&gt;Hotel::Room::Item</title>
<path fill="none" stroke="#868a05" d="M2406,-438.772C2406,-422.434 2406,-401.161 2406,-384.408"/>
<ellipse fill="none" stroke="#868a05" cx="2406" cy="-442.809" rx="4" ry="4"/>
<polygon fill="#868a05" stroke="#868a05" points="2406,-384.149 2410.5,-374.149 2406,-379.149 2406,-374.149 2406,-374.149 2406,-374.149 2406,-379.149 2401.5,-374.149 2406,-384.149 2406,-384.149"/>
</g>
<!-- Hotel::Room::List::Item -->
<g id="node21" class="node"><title>Hotel::Room::List::Item</title>
<ellipse fill="none" stroke="black" cx="2594" cy="-465" rx="94.338" ry="18"/>
<text text-anchor="middle" x="2594" y="-461.3" font-family="Times,serif" font-size="14.00">Hotel::Room::List::Item</text>
</g>
<!-- Hotel::Room::Field -->
<g id="node23" class="node"><title>Hotel::Room::Field</title>
<ellipse fill="none" stroke="black" cx="2786" cy="-465" rx="78.9404" ry="18"/>
<text text-anchor="middle" x="2786" y="-461.3" font-family="Times,serif" font-size="14.00">Hotel::Room::Field</text>
</g>
<!-- Hotel::SpecialOffer -->
<g id="node25" class="node"><title>Hotel::SpecialOffer</title>
<ellipse fill="none" stroke="black" cx="2963" cy="-465" rx="79.4147" ry="18"/>
<text text-anchor="middle" x="2963" y="-461.3" font-family="Times,serif" font-size="14.00">Hotel::SpecialOffer</text>
</g>
<!-- Hotel::Street -->
<g id="node27" class="node"><title>Hotel::Street</title>
<ellipse fill="none" stroke="black" cx="3116" cy="-465" rx="55.3682" ry="18"/>
<text text-anchor="middle" x="3116" y="-461.3" font-family="Times,serif" font-size="14.00">Hotel::Street</text>
</g>
<!-- Hotel::Filter -->
<g id="node28" class="node"><title>Hotel::Filter</title>
<ellipse fill="none" stroke="black" cx="3242" cy="-465" rx="52.4675" ry="18"/>
<text text-anchor="middle" x="3242" y="-461.3" font-family="Times,serif" font-size="14.00">Hotel::Filter</text>
</g>
<!-- Hotel::Item -->
<g id="node71" class="node"><title>Hotel::Item</title>
<ellipse fill="none" stroke="black" cx="3242" cy="-356" rx="50.0684" ry="18"/>
<text text-anchor="middle" x="3242" y="-352.3" font-family="Times,serif" font-size="14.00">Hotel::Item</text>
</g>
<!-- Hotel::Filter&#45;&gt;Hotel::Item -->
<g id="edge44" class="edge"><title>Hotel::Filter&#45;&gt;Hotel::Item</title>
<path fill="none" stroke="#1ea7f8" d="M3242,-438.772C3242,-422.434 3242,-401.161 3242,-384.408"/>
<ellipse fill="none" stroke="#1ea7f8" cx="3242" cy="-442.809" rx="4" ry="4"/>
<polygon fill="#1ea7f8" stroke="#1ea7f8" points="3242,-384.149 3246.5,-374.149 3242,-379.149 3242,-374.149 3242,-374.149 3242,-374.149 3242,-379.149 3237.5,-374.149 3242,-384.149 3242,-384.149"/>
</g>
<!-- Hotel::Filter::Item -->
<g id="node29" class="node"><title>Hotel::Filter::Item</title>
<ellipse fill="none" stroke="black" cx="3385" cy="-465" rx="72.192" ry="18"/>
<text text-anchor="middle" x="3385" y="-461.3" font-family="Times,serif" font-size="14.00">Hotel::Filter::Item</text>
</g>
<!-- Search -->
<g id="node31" class="node"><title>Search</title>
<polygon fill="none" stroke="black" points="3530.25,-483 3475.75,-483 3475.75,-447 3530.25,-447 3530.25,-483"/>
<text text-anchor="middle" x="3503" y="-461.3" font-family="Times,serif" font-size="14.00">Search</text>
</g>
<!-- Document -->
<g id="node32" class="node"><title>Document</title>
<ellipse fill="none" stroke="black" cx="3597" cy="-465" rx="48.1437" ry="18"/>
<text text-anchor="middle" x="3597" y="-461.3" font-family="Times,serif" font-size="14.00">Document</text>
</g>
<!-- Article -->
<g id="node33" class="node"><title>Article</title>
<ellipse fill="none" stroke="black" cx="3698" cy="-465" rx="34.1708" ry="18"/>
<text text-anchor="middle" x="3698" y="-461.3" font-family="Times,serif" font-size="14.00">Article</text>
</g>
<!-- Message -->
<g id="node34" class="node"><title>Message</title>
<ellipse fill="none" stroke="black" cx="427" cy="-356" rx="42.3701" ry="18"/>
<text text-anchor="middle" x="427" y="-352.3" font-family="Times,serif" font-size="14.00">Message</text>
</g>
<!-- User -->
<g id="node35" class="node"><title>User</title>
<ellipse fill="none" stroke="black" cx="427" cy="-268" rx="27.4223" ry="18"/>
<text text-anchor="middle" x="427" y="-264.3" font-family="Times,serif" font-size="14.00">User</text>
</g>
<!-- Message&#45;&gt;User -->
<g id="edge46" class="edge"><title>Message&#45;&gt;User</title>
<path fill="none" stroke="#037222" d="M427,-327.342C427,-317.378 427,-306.149 427,-296.223"/>
<polygon fill="#037222" stroke="#037222" points="427,-327.597 422.5,-337.597 427,-332.597 427,-337.597 427,-337.597 427,-337.597 427,-332.597 431.5,-337.597 427,-327.597 427,-327.597"/>
<polygon fill="#037222" stroke="#037222" points="427,-296.084 431.5,-286.084 427,-291.084 427,-286.084 427,-286.084 427,-286.084 427,-291.084 422.5,-286.084 427,-296.084 427,-296.084"/>
<text text-anchor="middle" x="474" y="-308.3" font-family="Times,serif" font-size="14.00">have_read_users</text>
</g>
<!-- User&#45;&gt;User::Moderator -->
<g id="edge8" class="edge"><title>User&#45;&gt;User::Moderator</title>
<path fill="none" stroke="black" d="M403.006,-259.063C358.629,-244.385 263.259,-212.84 208.305,-194.663"/>
</g>
<!-- User&#45;&gt;User::Agency -->
<g id="edge12" class="edge"><title>User&#45;&gt;User::Agency</title>
<path fill="none" stroke="black" d="M409.5,-253.562C389.566,-238.256 357.019,-213.264 335.804,-196.974"/>
</g>
<!-- User&#45;&gt;Profile -->
<g id="edge52" class="edge"><title>User&#45;&gt;Profile</title>
<path fill="none" stroke="#88cbea" d="M427,-241.339C427,-230.199 427,-217.195 427,-206.117"/>
<ellipse fill="none" stroke="#88cbea" cx="427" cy="-245.597" rx="4" ry="4"/>
<ellipse fill="#88cbea" stroke="#88cbea" cx="427" cy="-202.084" rx="4" ry="4"/>
</g>
<!-- User&#45;&gt;BasketItem -->
<g id="edge50" class="edge"><title>User&#45;&gt;BasketItem</title>
<path fill="none" stroke="#d5dbbc" d="M450.195,-247.82C466.143,-234.631 487.374,-217.075 504.071,-203.268"/>
<ellipse fill="none" stroke="#d5dbbc" cx="446.792" cy="-250.634" rx="4.00002" ry="4.00002"/>
<polygon fill="#d5dbbc" stroke="#d5dbbc" points="504.154,-203.2 514.728,-200.295 508.007,-200.013 511.86,-196.827 511.86,-196.827 511.86,-196.827 508.007,-200.013 508.993,-193.359 504.154,-203.2 504.154,-203.2"/>
</g>
<!-- User&#45;&gt;Hotel::Room -->
<g id="edge48" class="edge"><title>User&#45;&gt;Hotel::Room</title>
<path fill="none" stroke="#bff638" d="M459.869,-254.763C499.989,-239.827 568.031,-214.495 612.993,-197.756"/>
<polygon fill="#bff638" stroke="#bff638" points="459.792,-254.792 448.851,-254.063 455.107,-256.536 450.421,-258.281 450.421,-258.281 450.421,-258.281 455.107,-256.536 451.991,-262.498 459.792,-254.792 459.792,-254.792"/>
<polygon fill="#bff638" stroke="#bff638" points="613.126,-197.707 624.067,-198.435 617.811,-195.962 622.497,-194.217 622.497,-194.217 622.497,-194.217 617.811,-195.962 620.927,-190 613.126,-197.707 613.126,-197.707"/>
<text text-anchor="middle" x="582.5" y="-220.3" font-family="Times,serif" font-size="14.00">rooms</text>
</g>
<!-- Page -->
<g id="node36" class="node"><title>Page</title>
<ellipse fill="none" stroke="black" cx="3779" cy="-465" rx="28.3955" ry="18"/>
<text text-anchor="middle" x="3779" y="-461.3" font-family="Times,serif" font-size="14.00">Page</text>
</g>
<!-- Ticket -->
<g id="node37" class="node"><title>Ticket</title>
<ellipse fill="none" stroke="black" cx="427" cy="-465" rx="33.2209" ry="18"/>
<text text-anchor="middle" x="427" y="-461.3" font-family="Times,serif" font-size="14.00">Ticket</text>
</g>
<!-- Ticket&#45;&gt;Hotel::Room -->
<g id="edge58" class="edge"><title>Ticket&#45;&gt;Hotel::Room</title>
<path fill="none" stroke="#0b565c" d="M446.199,-440.479C489.392,-387.563 593.868,-259.569 637.899,-205.626"/>
<polygon fill="#0b565c" stroke="#0b565c" points="446.072,-440.635 436.262,-445.536 442.91,-444.508 439.749,-448.382 439.749,-448.382 439.749,-448.382 442.91,-444.508 443.235,-451.227 446.072,-440.635 446.072,-440.635"/>
<polygon fill="#0b565c" stroke="#0b565c" points="638.105,-205.374 647.914,-200.472 641.267,-201.5 644.428,-197.627 644.428,-197.627 644.428,-197.627 641.267,-201.5 640.942,-194.781 638.105,-205.374 638.105,-205.374"/>
<text text-anchor="middle" x="574.5" y="-308.3" font-family="Times,serif" font-size="14.00">rooms</text>
</g>
<!-- Ticket&#45;&gt;Hotel::City -->
<g id="edge60" class="edge"><title>Ticket&#45;&gt;Hotel::City</title>
<path fill="none" stroke="#116950" d="M405.738,-441.214C399.271,-435.455 391.797,-429.827 384,-426 310.682,-390.012 23,-438.674 23,-357 23,-357 23,-357 23,-179 23,-157.744 31.8956,-135.378 40.4497,-118.784"/>
<polygon fill="#116950" stroke="#116950" points="406.096,-441.555 410.234,-451.71 409.717,-445.003 413.338,-448.451 413.338,-448.451 413.338,-448.451 409.717,-445.003 416.441,-445.193 406.096,-441.555 406.096,-441.555"/>
<polygon fill="#116950" stroke="#116950" points="40.5957,-118.515 49.3293,-111.884 42.9863,-114.124 45.3769,-109.733 45.3769,-109.733 45.3769,-109.733 42.9863,-114.124 41.4246,-107.581 40.5957,-118.515 40.5957,-118.515"/>
<text text-anchor="middle" x="37.5" y="-264.3" font-family="Times,serif" font-size="14.00">cities</text>
</g>
<!-- Ticket&#45;&gt;Message -->
<g id="edge54" class="edge"><title>Ticket&#45;&gt;Message</title>
<path fill="none" stroke="#c564c0" d="M421.169,-438.772C419.95,-421.812 419.944,-399.533 421.149,-382.513"/>
<ellipse fill="none" stroke="#c564c0" cx="421.53" cy="-442.824" rx="4" ry="4"/>
<ellipse fill="#c564c0" stroke="#c564c0" cx="421.537" cy="-378.133" rx="4" ry="4"/>
</g>
<!-- Ticket&#45;&gt;Message -->
<g id="edge56" class="edge"><title>Ticket&#45;&gt;Message</title>
<path fill="none" stroke="#eb5ec7" d="M432.831,-438.772C434.005,-422.434 434.054,-401.161 432.979,-384.408"/>
<ellipse fill="none" stroke="#eb5ec7" cx="432.47" cy="-442.824" rx="4" ry="4"/>
<polygon fill="#eb5ec7" stroke="#eb5ec7" points="432.954,-384.113 436.594,-373.769 432.532,-379.131 432.11,-374.149 432.11,-374.149 432.11,-374.149 432.532,-379.131 427.626,-374.528 432.954,-384.113 432.954,-384.113"/>
</g>
</g>
</svg>
